<svg xmlns="http://www.w3.org/2000/svg" width="32" height="22.005" viewBox="0 0 32 22.005">
  <g id="contacts_button" transform="translate(66 115.7)">
    <path id="Caminho_926" data-name="Caminho 926" d="M33,35.578V38.3H1V35.366a2.073,2.073,0,0,1,.748-1.6,33.864,33.864,0,0,1,6.109-3.938.189.189,0,0,0,.108-.173V27.63A4.774,4.774,0,0,1,7.371,26c-.229-.02-.526-.327-.849-1.476-.441-1.558.026-1.789.424-1.75a4.091,4.091,0,0,1-.173-.653h0a4.571,4.571,0,0,1,0-2.051,4.464,4.464,0,0,1,1.2-2.1,5.763,5.763,0,0,1,1.107-.914,4.313,4.313,0,0,1,1.064-.545h0a3.569,3.569,0,0,1,.98-.186,4.033,4.033,0,0,1,2.472.532,3.053,3.053,0,0,1,1.2,1.113s1.985.14,1.306,4.176a4.1,4.1,0,0,1-.173.653c.4-.036.865.193.424,1.75-.327,1.14-.62,1.46-.849,1.476A4.673,4.673,0,0,1,14.9,27.63v2.051a.189.189,0,0,0,.108.173,33.729,33.729,0,0,1,3.024,1.708c.98-.578,1.718-.95,1.976-1.078a.176.176,0,0,0,.1-.16V28.456a4.415,4.415,0,0,1-.552-1.505c-.209-.016-.487-.327-.787-1.365-.385-1.355-.023-1.633.327-1.633-.186-.793-.653-3.546,1.394-4.8a1.1,1.1,0,0,1-.392-.836,15.6,15.6,0,0,0,3.468.033,2.317,2.317,0,0,1,2.54,1.509s2.286,0,1.4,4.095c.359,0,.748.232.353,1.633-.3,1.055-.575,1.349-.787,1.365a4.415,4.415,0,0,1-.552,1.505v1.835a.176.176,0,0,0,.1.16,31.347,31.347,0,0,1,5.691,3.638A1.92,1.92,0,0,1,33,35.578Z" transform="translate(-67 -132)" fill="#c8d2e2"/>
  </g>
</svg>
