<svg xmlns="http://www.w3.org/2000/svg" width="35.53" height="20.937" viewBox="0 0 35.53 20.937">
  <g id="Current_account_button" transform="translate(-8.275 -24.8)">
    <g id="Grupo_1751" data-name="Grupo 1751" transform="translate(8.275 24.8)">
      <path id="Caminho_1582" data-name="Caminho 1582" d="M17.062,34.2c4.919,0,8.662-2.046,8.662-4.7s-3.743-4.7-8.662-4.7C12.1,24.8,8.4,26.846,8.4,29.5,8.356,32.156,12.1,34.2,17.062,34.2Zm0-7.7c3.961,0,6.921,1.567,6.921,2.96s-2.96,2.96-6.921,2.96-6.921-1.567-6.921-2.96S13.057,26.5,17.062,26.5Z" transform="translate(-8.345 -24.8)" fill="#c8d2e2"/>
      <path id="Caminho_1583" data-name="Caminho 1583" d="M16.861,48.8c4.222,0,7.7-1.523,8.488-3.743a.906.906,0,0,0-.522-1.132.888.888,0,0,0-1.132.522c-.435,1.262-3.134,2.612-6.877,2.612-3.7,0-6.4-1.306-6.834-2.568a.881.881,0,1,0-1.654.609C9.156,47.281,12.639,48.8,16.861,48.8Z" transform="translate(-8.275 -35.572)" fill="#c8d2e2"/>
      <path id="Caminho_1584" data-name="Caminho 1584" d="M16.861,57.6c4.222,0,7.7-1.523,8.488-3.743a.906.906,0,0,0-.522-1.132.888.888,0,0,0-1.132.522c-.435,1.262-3.134,2.612-6.877,2.612-3.7,0-6.4-1.306-6.834-2.568a.881.881,0,1,0-1.654.609C9.156,56.081,12.639,57.6,16.861,57.6Z" transform="translate(-8.275 -40.541)" fill="#c8d2e2"/>
      <path id="Caminho_1585" data-name="Caminho 1585" d="M24.826,61.529a.888.888,0,0,0-1.132.522c-.435,1.262-3.134,2.612-6.877,2.612-3.7,0-6.4-1.306-6.834-2.568a.881.881,0,1,0-1.654.609c.784,2.176,4.309,3.743,8.488,3.743,4.222,0,7.7-1.523,8.488-3.743A.884.884,0,0,0,24.826,61.529Z" transform="translate(-8.275 -45.511)" fill="#c8d2e2"/>
    </g>
    <path id="Caminho_1586" data-name="Caminho 1586" d="M58.762,51.646c4.919,0,8.662-2.046,8.662-4.7S63.681,42.2,58.762,42.2c-4.962,0-8.662,2.046-8.662,4.7C50.1,49.6,53.843,51.646,58.762,51.646Zm0-7.7c3.961,0,6.921,1.567,6.921,2.96s-2.96,2.96-6.921,2.96-6.921-1.567-6.921-2.96S54.8,43.941,58.762,43.941Z" transform="translate(-23.62 -9.826)" fill="#c8d2e2"/>
    <path id="Caminho_1587" data-name="Caminho 1587" d="M58.561,66.3c4.222,0,7.7-1.523,8.488-3.743a.906.906,0,0,0-.522-1.132.888.888,0,0,0-1.132.522c-.435,1.262-3.134,2.612-6.877,2.612-3.7,0-6.4-1.306-6.834-2.568a.881.881,0,1,0-1.654.609C50.9,64.781,54.382,66.3,58.561,66.3Z" transform="translate(-23.549 -20.654)" fill="#c8d2e2"/>
  </g>
</svg>
