<svg id="master_card" xmlns="http://www.w3.org/2000/svg" width="64" height="36" viewBox="0 0 64 36">
  <rect id="Retângulo_1918" data-name="Retângulo 1918" width="64" height="36" rx="4" fill="#f0f3f8"/>
  <g id="XMLID_328_" transform="translate(16 8)">
    <rect id="rect19" width="8.53" height="15.328" transform="translate(11.509 2.085)" fill="#ff5f00"/>
    <path id="XMLID_330_" d="M2910.785,2249.251a9.774,9.774,0,0,1,3.71-7.664,9.749,9.749,0,1,0,0,15.327A9.734,9.734,0,0,1,2910.785,2249.251Z" transform="translate(-2898.734 -2239.502)" fill="#eb001b"/>
    <path id="path22" d="M3414.928,2249.251a9.738,9.738,0,0,1-15.761,7.664,9.77,9.77,0,0,0,0-15.327,9.738,9.738,0,0,1,15.761,7.664Z" transform="translate(-3383.379 -2239.502)" fill="#f79e1b"/>
  </g>
</svg>
