<svg xmlns="http://www.w3.org/2000/svg" width="27.922" height="26.281" viewBox="0 0 27.922 26.281">
  <g id="noun_cart_1864278" transform="translate(0 0)">
    <g id="Grupo_2170" data-name="Grupo 2170" transform="translate(0 0)">
      <path id="Caminho_2019" data-name="Caminho 2019" d="M29.81,10.709a2.829,2.829,0,0,0-2.2-1.088H9.7L9.144,7.446A2.826,2.826,0,0,0,6.41,5.3h-3a.911.911,0,1,0,0,1.823h3a.972.972,0,0,1,.941.735l3.586,14.287a2.826,2.826,0,0,0,2.734,2.146H25.4a2.8,2.8,0,0,0,2.734-2.146l2.2-9.054A2.7,2.7,0,0,0,29.81,10.709Zm-1.264,1.97-2.2,9.054a.972.972,0,0,1-.941.735H13.671a.972.972,0,0,1-.941-.735l-2.558-10.26H27.605a.975.975,0,0,1,.764.382A.922.922,0,0,1,28.546,12.679Z" transform="translate(-2.5 -5.3)" fill="#63799b"/>
      <path id="Caminho_2020" data-name="Caminho 2020" d="M35.257,73.9a3.057,3.057,0,1,0,3.057,3.057A3.074,3.074,0,0,0,35.257,73.9Zm0,4.263a1.205,1.205,0,1,1,1.205-1.205A1.23,1.23,0,0,1,35.257,78.163Z" transform="translate(-23.469 -53.733)" fill="#63799b"/>
      <path id="Caminho_2021" data-name="Caminho 2021" d="M69.657,73.9a3.057,3.057,0,1,0,3.057,3.057A3.074,3.074,0,0,0,69.657,73.9Zm0,4.263a1.205,1.205,0,1,1,1.205-1.205A1.23,1.23,0,0,1,69.657,78.163Z" transform="translate(-47.756 -53.733)" fill="#63799b"/>
    </g>
  </g>
</svg>
