<svg id="master_card" xmlns="http://www.w3.org/2000/svg" width="64" height="36" viewBox="0 0 64 36">
  <rect id="Retângulo_1918" data-name="Retângulo 1918" width="64" height="36" rx="4" fill="#f0f3f8"/>
  <g id="PayPal" transform="translate(9.225 12.175)">
    <path id="Caminho_2048" data-name="Caminho 2048" d="M41.183,6.749H37.6a.5.5,0,0,0-.491.42l-1.448,9.179a.3.3,0,0,0,.3.344h1.709a.5.5,0,0,0,.491-.42l.39-2.476a.5.5,0,0,1,.491-.42h1.133a3.676,3.676,0,0,0,4.074-3.4,2.757,2.757,0,0,0-.456-2.311,3.321,3.321,0,0,0-2.609-.914ZM41.6,10.1c-.2,1.284-1.177,1.284-2.126,1.284h-.54l.379-2.4a.3.3,0,0,1,.295-.252h.248c.646,0,1.256,0,1.571.368A1.193,1.193,0,0,1,41.6,10.1Zm10.287-.041H50.169a.3.3,0,0,0-.295.252l-.076.479-.12-.174A2.44,2.44,0,0,0,47.654,9.9a3.942,3.942,0,0,0-3.827,3.447,3.236,3.236,0,0,0,.639,2.633,2.682,2.682,0,0,0,2.159.872A3.28,3.28,0,0,0,49,15.87l-.076.476a.3.3,0,0,0,.294.345h1.544a.5.5,0,0,0,.491-.42l.926-5.867a.3.3,0,0,0-.294-.344ZM49.493,13.4a1.91,1.91,0,0,1-1.934,1.637,1.328,1.328,0,0,1-1.42-1.667,1.919,1.919,0,0,1,1.921-1.65,1.446,1.446,0,0,1,1.143.467A1.484,1.484,0,0,1,49.493,13.4ZM61.012,10.06H59.29a.5.5,0,0,0-.412.218l-2.376,3.5-1.007-3.363a.5.5,0,0,0-.477-.355H53.325a.3.3,0,0,0-.283.395l1.9,5.568-1.784,2.518a.3.3,0,0,0,.243.471h1.72a.5.5,0,0,0,.409-.214l5.729-8.27a.3.3,0,0,0-.245-.468Z" transform="translate(-35.66 -6.748)" fill="#253b80"/>
    <path id="Caminho_2049" data-name="Caminho 2049" d="M89.964,6.749h-3.58a.5.5,0,0,0-.491.42l-1.448,9.179a.3.3,0,0,0,.294.344h1.837a.348.348,0,0,0,.343-.294l.411-2.6a.5.5,0,0,1,.491-.42h1.133a3.677,3.677,0,0,0,4.075-3.4,2.755,2.755,0,0,0-.457-2.311,3.318,3.318,0,0,0-2.608-.914Zm.413,3.352c-.2,1.284-1.177,1.284-2.126,1.284h-.54l.379-2.4a.3.3,0,0,1,.294-.252h.248c.646,0,1.256,0,1.571.368a1.193,1.193,0,0,1,.173,1Zm10.287-.041H98.95a.3.3,0,0,0-.294.252l-.076.479-.12-.174A2.439,2.439,0,0,0,96.436,9.9a3.941,3.941,0,0,0-3.827,3.447,3.237,3.237,0,0,0,.638,2.633,2.684,2.684,0,0,0,2.159.872,3.28,3.28,0,0,0,2.373-.981l-.076.476a.3.3,0,0,0,.3.345h1.544a.5.5,0,0,0,.491-.42l.927-5.867a.3.3,0,0,0-.3-.344ZM98.274,13.4a1.91,1.91,0,0,1-1.934,1.637,1.328,1.328,0,0,1-1.42-1.667,1.92,1.92,0,0,1,1.921-1.65,1.446,1.446,0,0,1,1.143.467A1.476,1.476,0,0,1,98.274,13.4Zm4.41-6.4-1.469,9.347a.3.3,0,0,0,.294.344h1.477a.5.5,0,0,0,.491-.42l1.449-9.179a.3.3,0,0,0-.294-.345h-1.654A.3.3,0,0,0,102.684,7Z" transform="translate(-58.908 -6.748)" fill="#179bd7"/>
  </g>
</svg>
