<svg id="visa_Card" xmlns="http://www.w3.org/2000/svg" xmlns:xlink="http://www.w3.org/1999/xlink" width="64" height="36" viewBox="0 0 64 36">
  <defs>
    <linearGradient id="linear-gradient" y1="0.5" x2="1.001" y2="0.5" gradientUnits="objectBoundingBox">
      <stop offset="0" stop-color="#52c3e7"/>
      <stop offset="1" stop-color="#0089cc"/>
    </linearGradient>
  </defs>
  <rect id="Retângulo_1918" data-name="Retângulo 1918" width="64" height="36" rx="4" fill="#f0f3f8"/>
  <g id="Revolut-Logo.wine" transform="translate(5 11)">
    <path id="Caminho_2050" data-name="Caminho 2050" d="M5.533,45.23a18.834,18.834,0,0,0-2.673.227,18.834,18.834,0,0,1,2.673-.227m.682,1.592H5.59a7.144,7.144,0,0,0-.114.768l-.455,2.758h.768a1.843,1.843,0,0,0,1.735-2.076,1.3,1.3,0,0,0-1.308-1.45m8.474,2.986c-.455,0-.768.881-.938,1.592h.256a1.039,1.039,0,0,0,1.081-.825v-.171a.653.653,0,0,0-.114-.4.282.282,0,0,0-.284-.2m14.871.114c-.028,0-.028-.028-.057-.028a.171.171,0,0,0-.114-.028.323.323,0,0,0-.227.085c-.028.028-.057.028-.085.057s-.028.057-.057.057a1.848,1.848,0,0,0-.313.626c-.028.028-.028.085-.057.142-.057.142-.085.313-.142.455-.028.114-.057.256-.085.37a8.894,8.894,0,0,0-.114,1.251,4.607,4.607,0,0,0,.028.626.256.256,0,0,0,.028.142l.085.341.085.171c.085.171.171.256.284.256a.256.256,0,0,0,.142-.028.6.6,0,0,0,.171-.114,2.932,2.932,0,0,0,.483-1l.085-.341.085-.427a4.242,4.242,0,0,0,.057-.6,3.811,3.811,0,0,0,.028-.569,3.038,3.038,0,0,0-.171-1.223.34.34,0,0,0-.142-.227m21.781,2.5.142-.967a3.035,3.035,0,0,0,1.479-.427,2.086,2.086,0,0,0,1.024-1.877,3.389,3.389,0,0,0-.4-1.592,1.6,1.6,0,0,0-1.393-.825h-.085A1.617,1.617,0,0,0,50.517,45.2a16.181,16.181,0,0,0-2.36.171,1.729,1.729,0,0,0-1.336,1.422c0,.028-1.82,0-3.014,0a2.153,2.153,0,0,0-1.422.455,1.8,1.8,0,0,0-1.678-.455,12.465,12.465,0,0,0-1.763.227,19.543,19.543,0,0,0,.227-2.218v-.057a1.633,1.633,0,0,0-1.592-1.621,17.9,17.9,0,0,0-3.185.313,1.65,1.65,0,0,0-1.223,1.649,24.52,24.52,0,0,1-.284,2.73,4.379,4.379,0,0,0-2.872-.967,6.3,6.3,0,0,0-2.957.711,1.58,1.58,0,0,0-1.223-.54c-.91,0-1.592,0-2.246.057a1.579,1.579,0,0,0-1.251.768c-.028-.028-.028-.057-.057-.085a1.6,1.6,0,0,0-1.393-.825,19.175,19.175,0,0,0-3.355.4,5.172,5.172,0,0,0-2.275-.455,5.953,5.953,0,0,0-3.27.881c-.171-2.417-2.246-4.066-5.2-4.066,0,0-3.611.142-4.265.284a1.594,1.594,0,0,0-1.251,1.649,9.007,9.007,0,0,1-.142,1.706L.074,54.1a3.021,3.021,0,0,0,.483,2.531,2.331,2.331,0,0,0,1.877.8,7.013,7.013,0,0,0,2.673-.512,1.716,1.716,0,0,0,.654-.54,3.144,3.144,0,0,0,2.5,1.081,6.544,6.544,0,0,0,2.929-.711,5.093,5.093,0,0,0,2.73.711A5.824,5.824,0,0,0,18.3,55.609,2.527,2.527,0,0,0,20.774,57.4a5.3,5.3,0,0,0,2.417-.512c.711-.341,1.024-1.507,1.166-1.763a4.22,4.22,0,0,0,3.924,2.3,6.3,6.3,0,0,0,3.952-1.365,4.16,4.16,0,0,0,.256.37,2.917,2.917,0,0,0,2.3.938,4.2,4.2,0,0,0,2.474-.711,2.793,2.793,0,0,0,2.047.768,4.653,4.653,0,0,0,2.133-.54,3.151,3.151,0,0,0,1.848.512,3.99,3.99,0,0,0,2.9-1.109,4.408,4.408,0,0,0,3.27,1.137A4.8,4.8,0,0,0,53.389,55.1c.626-1-.057-2.758-2.047-2.673m-40.974-4.18a3.642,3.642,0,0,1-2.1,2.929L9.372,54.1a2.726,2.726,0,0,0,.853,1.365,1.01,1.01,0,0,1-.256.114,4.972,4.972,0,0,1-1.706.256c-.569,0-1.336-.142-1.82-1.535l-.825-2.389H4.794l-.37,2.275a3.529,3.529,0,0,0-.085.768v.057a1.141,1.141,0,0,0,.085.427,5.308,5.308,0,0,1-1.99.37c-.427,0-.825-.142-.853-.881a4.242,4.242,0,0,1,.057-.6L2.69,47.562A9.692,9.692,0,0,0,2.832,46v-.54A15.294,15.294,0,0,1,5.5,45.23H6.727a5.02,5.02,0,0,1,2.133.427,3.075,3.075,0,0,1,.512.313,5.459,5.459,0,0,1,.427.4,3.14,3.14,0,0,1,.427.739,3.011,3.011,0,0,1,.142.881v.256m4.066,4.55c-.114,0-.227.028-.313.028h-.455v.171c.057.8.4,1.479,1.137,1.479h.171c.711-.085,1.137-.6,1.507-.6a1.4,1.4,0,0,1,.483.171l.37.227a2.961,2.961,0,0,1-.967.91,4.477,4.477,0,0,1-2.474.711,2.783,2.783,0,0,1-3.1-2.73v-.284a4.293,4.293,0,0,1,4.493-4.464,3.94,3.94,0,0,1,1.308.2,1.562,1.562,0,0,1,1.166,1.507c.028.853-.512,2.417-3.327,2.673m8.616,1.365a7.541,7.541,0,0,0-.654,1.365,3.634,3.634,0,0,1-1.649.313c-.483,0-.938-.227-1.166-1.479L18.869,50.8a11.25,11.25,0,0,0-.654-2.1,7.273,7.273,0,0,1,.768-.142c.057,0,.114-.028.171-.028h.028a.555.555,0,0,0,.2-.028h.028c.142,0,.284-.028.455-.028h1.052a7.271,7.271,0,0,1,.313.682c.028.085.057.142.085.227a3.306,3.306,0,0,1,.114.512l.483,3.242c.4-.768.768-1.564,1.109-2.36a11.3,11.3,0,0,0,.569-1.649c.057-.2.085-.37.142-.569a3.09,3.09,0,0,1,.512-.028h1.592a4.813,4.813,0,0,1-.37,1.393,39.478,39.478,0,0,1-2.417,4.237m8.843.028a3.7,3.7,0,0,1-.91.853c-.057.057-.142.085-.2.142a.028.028,0,0,0-.028.028c-.057.028-.114.085-.171.114a.028.028,0,0,0-.028.028,1.386,1.386,0,0,1-.2.085.028.028,0,0,0-.028.028c-.085.028-.142.057-.227.085-.142.057-.313.114-.483.171-.028,0-.028,0-.057.028-.057.028-.114.028-.171.057a.1.1,0,0,0-.085.028c-.057,0-.114.028-.171.028a.1.1,0,0,0-.085.028c-.057,0-.114.028-.171.028H27.854c-.057,0-.142-.028-.2-.028-.028,0-.085-.028-.114-.028-.057,0-.114-.028-.171-.028-.028,0-.085-.028-.114-.028-.057-.028-.114-.028-.142-.057s-.085-.028-.114-.057c-.057-.028-.085-.028-.142-.057-.028-.028-.085-.028-.114-.057s-.085-.057-.114-.085a.148.148,0,0,0-.114-.057c-.028-.028-.085-.057-.114-.085l-.085-.085-.085-.085-.085-.085-.085-.085a4415.734,4415.734,0,0,0-.171-.227.216.216,0,0,1-.057-.114c-.028-.028-.028-.085-.057-.114s-.028-.085-.057-.114-.028-.085-.057-.114c-.028-.057-.028-.085-.057-.142,0-.028-.028-.085-.028-.114,0-.057-.028-.085-.028-.142,0-.028-.028-.085-.028-.114a2.195,2.195,0,0,1-.057-.427V53.05a4.473,4.473,0,0,1,1.877-3.725,2.5,2.5,0,0,1,.6-.341c.2-.085.427-.171.626-.256h.028c.114-.028.2-.057.313-.085h.028c.114-.028.2-.028.313-.057h.028a1.275,1.275,0,0,1,.313-.028h.8c.085,0,.142.028.227.028h.057c.085.028.171.028.256.057.028,0,.057.028.085.028.057.028.114.028.171.057.028,0,.057.028.085.028.057.028.142.057.2.085.028,0,.057.028.085.057s.085.057.114.085.057.028.085.057a.393.393,0,0,0,.114.085c.057.028.085.085.142.114l.085.085.085.085.057.057c.057.085.142.171.2.256.028.057.057.085.085.142,0,.028.028.028.028.057a3.2,3.2,0,0,1,.341,1.535,4.874,4.874,0,0,1-1,2.73m5.6-8.331-.171,1.194L37.01,49.1l-.8,5.061c0,.057-.028.114-.028.171v.2c0,.028.028.057.028.085v.028c0,.028.028.057.057.085l.028.028.057.057.028.028a.653.653,0,0,0,.4.114,1.14,1.14,0,0,1-.427.4c-.028,0-.028.028-.057.028-.028.028-.085.057-.114.085a.1.1,0,0,1-.085.028c-.028.028-.085.028-.114.057a1.959,1.959,0,0,1-.227.085c-.028,0-.057.028-.114.028a.361.361,0,0,1-.171.028.215.215,0,0,0-.114.028c-.057,0-.114.028-.2.028h-.853c-.028,0-.057,0-.057-.028-.028,0-.028,0-.057-.028a.1.1,0,0,1-.057-.028.028.028,0,0,1-.028-.028c-.028,0-.057-.028-.085-.028H34a.889.889,0,0,1-.313-.256v-.028c-.028-.028-.028-.057-.057-.085a.028.028,0,0,0-.028-.028.1.1,0,0,1-.028-.085V55.1c0-.028-.028-.057-.028-.114v-.028c0-.028-.028-.085-.028-.114V54.67a1.877,1.877,0,0,1,.028-.4l1.166-7.251a.877.877,0,0,0,.028-.284c.057-.341.085-.654.114-1v-.825c.057,0,.085-.028.142-.028s.114-.028.171-.028c.085-.028.2-.028.313-.057a.361.361,0,0,0,.171-.028c.171-.028.341-.028.54-.057.142,0,.256-.028.4-.028.341-.028.711-.028,1.052-.028,0,.227-.028.512-.028.8a1.071,1.071,0,0,0-.114.4m7.763,9.128a2.336,2.336,0,0,1-1.962.853H43.01a.83.83,0,0,1-.256-.057l-.256-.085c-.4-.171-.626-.569-.512-1.336l.028-.142a1,1,0,0,1-.142.227,4.824,4.824,0,0,1-.284.4,3.408,3.408,0,0,1-.341.313c-.057.057-.114.085-.171.142a2.6,2.6,0,0,1-.37.227,3.316,3.316,0,0,1-.739.284,1.427,1.427,0,0,1-.341.057c-.114,0-.2.028-.313.028h-.256a.171.171,0,0,1-.114-.028.1.1,0,0,1-.085-.028c-.028,0-.057-.028-.085-.028s-.057-.028-.085-.028a.028.028,0,0,1-.028-.028c-.654-.284-.853-1.052-.682-2.076l.455-2.9c0-.085.028-.171.028-.227v-.085a.256.256,0,0,1,.028-.142v-.227a2.759,2.759,0,0,0,.028-.483v-.455a3.265,3.265,0,0,0-.028-.512c.028,0,.057-.028.114-.028a.215.215,0,0,0,.114-.028H41.3a13.966,13.966,0,0,1-.227,2.275l-.4,2.445c0,.057-.057.483-.057.6a1.621,1.621,0,0,0,.028.37.723.723,0,0,0,.057.2c.028.028.057.085.085.085h.028a.736.736,0,0,0,.4-.256,3.819,3.819,0,0,0,.626-.881c.057-.142.142-.256.2-.427.057-.142.114-.313.171-.455a.83.83,0,0,0,.057-.256l.2-1.393c.028-.2.057-.37.085-.54.028-.256.057-.512.085-.8A7.565,7.565,0,0,0,42.7,48.7a23.634,23.634,0,0,1,2.7-.171,15.857,15.857,0,0,1-.256,2.3l-.54,3.412c0,.483.227.739.654.739m1.592-.91a2.6,2.6,0,0,1,.028-.483l.569-3.554c-.114,0-.171.028-.227.028a1.172,1.172,0,0,0-.256.057c-.085.028-.2.028-.284.057a4.638,4.638,0,0,1,0-1.535,2.162,2.162,0,0,0,.4-.028h.682a9.139,9.139,0,0,0,.626-1.621c.171-.028.4-.057.626-.085.114,0,.171-.028.256-.028a1.067,1.067,0,0,0,.284-.028c.284-.028.6-.028.967-.028q-.043.725-.171,1.791h.512a2.043,2.043,0,0,0,1.365-.284,1.714,1.714,0,0,1,.227.825c0,.4-.114.654-1.365.682h-.938l-.569,3.554v.227c0,.483.227.881.6.881.6,0,.739-.455.967-.455a1.651,1.651,0,0,1,.853.4,2.976,2.976,0,0,1-2.5,1.479c-1.649-.028-2.588-.768-2.644-1.848Z" transform="translate(0.014 -43.126)" fill="url(#linear-gradient)"/>
  </g>
</svg>
