<svg id="visa_Card" xmlns="http://www.w3.org/2000/svg" width="64" height="36" viewBox="0 0 64 36">
  <rect id="Retângulo_1918" data-name="Retângulo 1918" width="64" height="36" rx="4" fill="#f0f3f8"/>
  <g id="visa_logo" transform="translate(10.119 10.273)">
    <path id="polygon9" d="M436.981,124.161h-3.474l2.173-13.434h3.473Z" transform="translate(-418.399 -110.483)" fill="#00579f"/>
    <path id="path11" d="M575.6,105.62a8.561,8.561,0,0,0-3.116-.572c-3.43,0-5.846,1.829-5.861,4.444-.028,1.93,1.73,3,3.044,3.645,1.344.657,1.8,1.087,1.8,1.673-.014.9-1.086,1.315-2.086,1.315a6.913,6.913,0,0,1-3.259-.715l-.457-.215-.486,3.016a10.572,10.572,0,0,0,3.874.715c3.645,0,6.018-1.8,6.046-4.588.014-1.529-.914-2.7-2.916-3.659-1.215-.615-1.959-1.029-1.959-1.658.014-.572.629-1.157,2-1.157a5.9,5.9,0,0,1,2.588.514l.314.143.472-2.9Z" transform="translate(-544.425 -105.048)" fill="#00579f"/>
    <path id="path13" d="M795.9,119.4c.286-.772,1.387-3.759,1.387-3.759-.014.029.286-.786.457-1.286l.243,1.158s.658,3.216.8,3.887Zm4.288-8.675H797.5a1.714,1.714,0,0,0-1.816,1.115l-5.16,12.319h3.645l.729-2.015h4.46c.1.472.414,2.015.414,2.015h3.216l-2.8-13.434Z" transform="translate(-760.105 -110.483)" fill="#00579f"/>
    <path id="path15" d="M174.412,110.727l-3.4,9.161-.372-1.858a10.282,10.282,0,0,0-4.8-5.631l3.116,11.748h3.673l5.46-13.42Z" transform="translate(-162.205 -110.483)" fill="#00579f"/>
    <path id="path17" d="M86.812,110.727H81.223l-.057.271c4.36,1.115,7.247,3.8,8.433,7.032l-1.215-6.174a1.437,1.437,0,0,0-1.572-1.129Z" transform="translate(-81.166 -110.483)" fill="#faa61a"/>
  </g>
</svg>
